<svg width="16" height="16" viewBox="0 0 16 16" fill="none" xmlns="http://www.w3.org/2000/svg">
<path d="M8 3C4.5105 3 1.486 5.032 0 8C1.486 10.968 4.5105 13 8 13C11.4895 13 14.5135 10.968 16 8C14.514 5.032 11.4895 3 8 3ZM11.9445 5.6515C12.8845 6.251 13.681 7.054 14.2795 8C13.681 8.9455 12.8845 9.749 11.9445 10.3485C10.7635 11.102 9.3995 11.5 8 11.5C6.6005 11.5 5.2365 11.102 4.0555 10.3485C3.1155 9.749 2.319 8.946 1.7205 8C2.319 7.0545 3.1155 6.251 4.0555 5.6515C4.1165 5.6125 4.1785 5.5745 4.241 5.5375C4.0855 5.9645 4 6.4255 4 6.906C4 9.115 5.791 10.906 8 10.906C10.209 10.906 12 9.115 12 6.906C12 6.425 11.915 5.9645 11.759 5.5375C11.821 5.5745 11.883 5.6125 11.9445 5.6515V5.6515ZM8 6.5C8 7.3285 7.3285 8 6.5 8C5.6715 8 5 7.3285 5 6.5C5 5.6715 5.6715 5 6.5 5C7.3285 5 8 5.6715 8 6.5Z" fill="black"/>
</svg>
